<?xml version="1.0" encoding="utf-8"?>
<!DOCTYPE svg PUBLIC "-//W3C//DTD SVG 1.0//EN" "http://www.w3.org/TR/2001/REC-SVG-20010904/DTD/svg10.dtd">
<svg version="1.0" xmlns="http://www.w3.org/2000/svg" width="390px" height="496px" viewBox="0 0 390 496" preserveAspectRatio="xMidYMid meet">
 <g fill="#000000">
  <path d="M0 248 l0 -248 195 0 195 0 0 248 0 248 -195 0 -195 0 0 -248z m38.8 232.3 c-3.2 -0.2 -8.6 -0.2 -12 0 -3.5 0.2 -0.9 0.3 5.7 0.3 6.6 0 9.4 -0.1 6.3 -0.3z m64.2 0.1 c-3.4 -0.7 -19.2 -1 -17.4 -0.3 1 0.4 5.7 0.7 10.4 0.7 4.7 0 7.8 -0.2 7 -0.4z m17 -24.4 c0 -16 -0.4 -25 -1 -25 -0.6 0 -1 6.9 -1 18.8 0 16.4 -0.2 19.2 -1.9 22.5 -1.8 3.6 -1.8 3.7 0 3.7 1.4 0 1.9 0.7 1.9 2.5 0 1.4 0.5 2.5 1 2.5 0.6 0 1 -9 1 -25z m47.8 24.3 c-2.7 -0.2 -6.9 -0.2 -9.5 0 -2.7 0.2 -0.5 0.3 4.7 0.3 5.2 0 7.4 -0.1 4.8 -0.3z m20.2 -35.8 c0 -23.7 -0.4 -36.5 -1 -36.5 -0.6 0 -1 5.3 -1 14 0 12.2 -0.2 14 -1.6 14 -1.1 0 -1.4 0.5 -0.9 1.8 3.2 7.6 3.2 29.1 0.2 35 -1.7 3.1 -1.7 3.2 0.3 3.2 1.5 0 2 0.7 2 2.5 0 1.4 0.5 2.5 1 2.5 0.6 0 1 -12.8 1 -36.5z m20 34 c0 -1.8 0.5 -2.5 1.9 -2.5 1.9 0 1.9 -0.1 0.3 -3.2 -2.5 -4.8 -3 -27 -0.8 -32.3 1.9 -4.6 1.9 -4.5 0.1 -4.5 -1.3 0 -1.5 -2.2 -1.5 -14 0 -8.7 -0.4 -14 -1 -14 -0.6 0 -1 12.8 -1 36.5 0 23.7 0.4 36.5 1 36.5 0.6 0 1 -1.1 1 -2.5z m27.8 1.8 c-2.7 -0.2 -6.9 -0.2 -9.5 0 -2.7 0.2 -0.5 0.3 4.7 0.3 5.2 0 7.4 -0.1 4.8 -0.3z m60 0 c-2.6 -0.2 -7.1 -0.2 -10 0 -2.9 0.2 -0.8 0.3 4.7 0.3 5.5 0 7.9 -0.1 5.3 -0.3z m17.2 -19.5 c0 -11.4 -0.5 -21 -1 -21.8 -0.7 -1 -1 1.6 -1 8.3 0 6 -0.4 9.7 -1 9.7 -0.7 0 -0.7 0.6 0 1.9 1.6 3.1 1.2 14.3 -0.6 16.9 -1.4 2 -1.4 2.2 0 2.2 0.9 0 1.6 0.7 1.6 1.5 0 0.8 0.5 1.5 1 1.5 0.6 0 1 -7.4 1 -20.2z m47.3 19.5 c-2.4 -0.2 -6.2 -0.2 -8.5 0 -2.4 0.2 -0.5 0.4 4.2 0.4 4.7 0 6.6 -0.2 4.3 -0.4z m19.7 -24.3 c0 -16 -0.4 -25 -1 -25 -0.6 0 -1 7.1 -1 19.3 0 15.1 -0.3 19.8 -1.5 22.1 -1.8 3.5 -1.8 3.6 0 3.6 0.9 0 1.5 0.9 1.5 2.5 0 1.4 0.5 2.5 1 2.5 0.6 0 1 -9 1 -25z m-303.8 -4.2 c-0.2 -12.2 -0.7 -20.8 -1.3 -20.8 -1.3 0 -1.2 33.6 0.2 38.3 0.6 2.2 1.1 3.7 1.2 3.5 0.1 -0.1 0.1 -9.6 -0.1 -21z m195.7 15 c0 -5.5 -0.2 -5.9 -1.1 -3.5 -0.9 2.5 -0.4 9.7 0.7 9.7 0.3 0 0.5 -2.8 0.4 -6.2z m-129.4 -10.9 c0 -14.6 -0.1 -15.8 -1.4 -12.7 -1.8 4.2 -1.9 20.1 -0.2 25.1 0.7 2 1.3 3.7 1.4 3.7 0.1 0 0.2 -7.2 0.2 -16.1z m193.7 -4.6 c-0.2 -12.9 -0.7 -20.3 -1.4 -20.3 -1.2 0 -0.6 36.5 0.6 39.3 0.5 1 0.9 1.7 1 1.5 0 -0.2 0 -9.4 -0.2 -20.5z m-82.2 5.1 c0 -8.6 -1.1 -14.6 -3.2 -16.9 -0.5 -0.5 -0.3 0.5 0.3 2.3 0.7 2 1 8.2 0.8 16.3 -0.3 10.8 -0.2 12.6 0.8 10.2 0.7 -1.5 1.2 -6.9 1.3 -11.9z m-216.7 -1.1 c-2.9 -0.2 -7.8 -0.2 -11 0 -3.2 0.2 -0.8 0.3 5.2 0.3 6.1 0 8.7 -0.1 5.8 -0.3z m257.5 -2 c-2.7 -0.2 -6.9 -0.2 -9.5 0 -2.7 0.2 -0.5 0.3 4.7 0.3 5.2 0 7.4 -0.1 4.8 -0.3z m-284.1 -11.5 c-0.2 -1.3 -0.4 -0.3 -0.4 2.2 0 2.5 0.2 3.5 0.4 2.3 0.2 -1.3 0.2 -3.3 0 -4.5z m26.1 -11.1 c-4.5 -0.6 -8.8 -0.6 -12.5 0.1 -5.3 0.9 -4.7 0.9 6.7 0.9 12.1 0 12.3 0 5.8 -1z m131.4 0.2 c-2.4 -0.4 -6.9 -0.4 -10 0 -5.3 0.8 -5 0.9 4.3 0.9 8.2 0 9.2 -0.2 5.7 -0.9z m67.3 0 c-2.7 -0.4 -7.2 -0.4 -10 0 -4.3 0.8 -3.7 0.9 5 0.9 8.7 0 9.3 -0.1 5 -0.9z m61.8 0.4 c-2.9 -0.2 -7.8 -0.2 -11 0 -3.2 0.2 -0.8 0.3 5.2 0.3 6.1 0 8.7 -0.1 5.8 -0.3z m83.7 -232.8 l0 -184.5 -186 0 -186 0 0 184.5 0 184.5 186 0 186 0 0 -184.5z"/>
  <path d="M20 361.5 l0 -11.5 14.5 0 14.5 0 0 11.5 0 11.5 -14.5 0 -14.5 0 0 -11.5z"/>
  <path d="M64 361.5 l0 -11.5 15.5 0 15.5 0 0 11.5 0 11.5 -15.5 0 -15.5 0 0 -11.5z"/>
  <path d="M110 361.5 l0 -11.5 15.5 0 15.5 0 0 11.5 0 11.5 -15.5 0 -15.5 0 0 -11.5z"/>
  <path d="M156.7 372.3 c-0.4 -0.3 -0.7 -31.2 -0.7 -68.5 l0 -67.8 -68 0 -68 0 0 -11.5 0 -11.5 68 0 68 0 0 -5.5 0 -5.5 -68 0 -68 0 0 -12 0 -12 68 0 68 0 0 -5 0 -5 -68 0 -68 0 0 -12 0 -12 68 0 68 0 0 -5.5 0 -5.5 -68 0 -68 0 0 -11.5 0 -11.5 68 0 68 0 0 -5.5 0 -5.5 -68 0 -68 0 0 -37.5 0 -37.5 175 0 175 0 0 174.5 0 174.6 -14.2 -0.3 -14.3 -0.3 -0.3 -25.7 -0.2 -25.8 -7 0 -7 0 -0.2 25.8 -0.3 25.7 -15.5 0 -15.5 0 -0.3 -46.7 -0.2 -46.8 -7 0 -7 0 -0.2 46.8 -0.3 46.7 -15.7 0.3 -15.8 0.3 0 -68.6 0 -68.5 -7.5 0 -7.5 0 0 68.5 0 68.5 -15.5 0 -15.5 0 0 -90 0 -90 -7.5 0 -7.5 0 0 90 0 90 -15.3 0 c-8.5 0 -15.7 -0.3 -16 -0.7z m137.4 -211.3 c21.8 -6.7 37.8 -31 34 -51.3 -4.2 -21.5 -23.5 -39.3 -44.1 -40.5 -18.4 -1.1 -35.7 9.5 -44.7 27.2 -5.3 10.3 -6.5 19.6 -3.8 29.5 7 26.6 34 42.8 58.6 35.1z"/>
  <path d="M20 327.6 l0 -11.3 6.8 -0.6 c3.7 -0.4 10.2 -0.7 14.5 -0.7 l7.7 0 0 12 0 12 -14.5 0 -14.5 0 0 -11.4z"/>
  <path d="M64 327 l0 -12 7.8 0 c4.4 0 11.3 0.3 15.5 0.6 l7.7 0.7 0 11.3 0 11.4 -15.5 0 -15.5 0 0 -12z"/>
  <path d="M110 327.5 l0 -11.5 15.5 0 15.5 0 0 11.5 0 11.5 -15.5 0 -15.5 0 0 -11.5z"/>
  <path d="M20 293 l0 -12 37.5 0 37.5 0 0 12 0 12 -37.5 0 -37.5 0 0 -12z"/>
  <path d="M110 293 l0 -12 15.5 0 15.5 0 0 12 0 12 -15.5 0 -15.5 0 0 -12z"/>
  <path d="M20 259 l0 -12 60.5 0 60.5 0 0 12 0 12 -60.5 0 -60.5 0 0 -12z"/>
 </g>
 <g fill="#ffffff">
  <path d="M15.5 482.6 c-5.1 -2.3 -7.7 -6 -8.3 -11.6 l-0.5 -5 3.7 0 c3.2 0 3.6 0.3 3.6 2.6 0 1.5 1.2 3.8 2.9 5.5 2.9 2.9 2.9 2.9 15.6 2.9 6.9 0 13.5 -0.5 14.5 -1 3 -1.6 4.6 -8.1 2.9 -11.6 -2.2 -4.5 -5.1 -5.4 -18.4 -5.4 -14.2 0 -18.5 -1 -21.9 -5.1 -2.2 -2.6 -2.6 -4 -2.6 -9.7 0 -7.8 2.1 -12.1 7.2 -14.9 2.7 -1.4 5.7 -1.8 16.3 -1.8 7.9 0 14.4 0.5 16.6 1.3 5.4 1.9 9 6.2 9.6 11.6 l0.6 4.6 -3.7 0 c-3.1 0 -3.6 -0.3 -3.6 -2.4 0 -1.5 -1.2 -3.4 -3.1 -5 -2.9 -2.5 -3.6 -2.6 -15.3 -2.6 -11 0 -12.6 0.2 -15 2.1 -3.2 2.6 -3.6 8.4 -0.7 12 1.8 2.3 2.7 2.4 16.8 2.9 16.8 0.6 20.4 1.8 23.6 8 2.4 4.6 1.9 13.9 -0.9 17.8 -3.9 5.2 -7.5 6.2 -22.9 6.2 -9.4 -0.1 -15 -0.5 -17 -1.4z"/>
  <path d="M80.3 481.9 c-2.4 -1.1 -5.3 -3.7 -6.5 -5.7 -2.2 -3.5 -2.3 -4.8 -2.6 -25.9 l-0.3 -22.3 4 0 4 0 0.3 20.9 c0.3 20.6 0.3 21 2.7 23.5 3.2 3.4 9.1 4.9 16.7 4.3 7.2 -0.5 11 -2.2 13.8 -6 1.9 -2.6 2.1 -4.4 2.4 -22.8 l0.3 -19.9 4 0 3.9 0 0 28 0 28 -4 0 c-3.6 0 -4 -0.2 -4 -2.6 l0 -2.5 -3.2 2.3 c-2.9 2 -4.6 2.3 -15.3 2.6 -10.6 0.2 -12.5 0 -16.2 -1.9z"/>
  <path d="M147.3 482.1 c-8.3 -3.9 -12.1 -14.5 -10.9 -30.9 0.9 -12.6 3.5 -17.6 11.1 -21.5 5.6 -2.9 24.1 -3.1 29.8 -0.3 2 1 3.7 2.2 3.7 2.7 0 0.5 0.5 0.9 1 0.9 0.6 0 1 -5.3 1 -14 l0 -14 4 0 4 0 0 39.5 0 39.5 -4 0 c-3.6 0 -4 -0.2 -4 -2.6 l0 -2.5 -3.2 2.3 c-3 2.1 -4.6 2.3 -15.8 2.6 -10.6 0.2 -13.1 -0.1 -16.7 -1.7z m28.4 -7.1 c5.5 -3.3 6.8 -7 6.8 -19.5 0 -17.2 -3 -20.5 -18.7 -20.5 -15.3 0 -18.8 3.8 -18.8 20.8 0 17.6 3.1 21.2 18.5 21.2 7.2 0 9.7 -0.4 12.2 -2z"/>
  <path d="M203 444.5 l0 -39.5 4 0 4 0 0 14 0 13.9 3.5 -2.3 c4.4 -3 15.2 -4.2 24.2 -2.7 14.7 2.4 18.3 8 18.3 28.6 0 11.5 -0.2 12.6 -2.8 17.6 -2 3.9 -3.8 5.8 -7.2 7.6 -4.2 2.3 -5.4 2.4 -17.2 2.1 -11.3 -0.3 -13 -0.5 -15.7 -2.6 l-3.1 -2.3 0 2.6 c0 2.3 -0.4 2.5 -4 2.5 l-4 0 0 -39.5z m39 31 c4.8 -2.5 6.3 -6.7 6.8 -18.1 0.5 -12.6 -1.5 -18.6 -7.2 -20.9 -4.9 -2.1 -19.7 -2 -23.7 0.1 -4.7 2.4 -6.9 8.2 -6.9 18.5 0 12 2.6 18.5 8.5 20.9 3.6 1.5 19.3 1.1 22.5 -0.5z"/>
  <path d="M275.1 482.2 c-6 -3 -7.6 -6.3 -7.6 -15.2 0 -8.9 1.6 -12.2 7.6 -15.3 2.8 -1.5 5.5 -1.7 16 -1.5 10.8 0.3 13 0.6 14.8 2.2 l2.1 1.9 0 -7.2 c0 -6.3 -0.3 -7.5 -2.5 -9.6 -2.3 -2.3 -3.1 -2.5 -13.2 -2.5 -11.6 0 -15.3 1.2 -15.3 5.1 0 1.6 -0.7 1.9 -4.6 1.9 l-4.6 0 0.7 -3.2 c1.9 -9 5.9 -10.8 23.2 -10.8 10.4 0 13.6 0.4 17 1.9 7 3.2 7.3 4.7 7.3 31.1 l0 23 -4 0 c-2.9 0 -4 -0.4 -4 -1.5 0 -1.4 -0.3 -1.4 -3 0 -4.4 2.3 -25.3 2.1 -29.9 -0.3z m30 -8.1 c3.8 -3.9 4 -9.7 0.5 -13.8 -2.3 -2.7 -2.8 -2.8 -13.5 -3.1 l-11.1 -0.4 -3 3 c-4.2 4.2 -4.2 10.1 -0.1 14.3 2.9 2.8 3.2 2.9 13.6 2.9 10.4 0 10.7 -0.1 13.6 -2.9z"/>
  <path d="M342.5 482.8 c-3.7 -1.3 -7.2 -4.4 -9.3 -8.3 -1.4 -2.5 -1.7 -6.9 -2 -24.7 l-0.4 -21.8 4 0 4 0 0.4 20.4 c0.3 23.2 0.9 24.9 8.4 27.4 5 1.7 15.7 1.1 20.6 -1.2 6.1 -2.9 6.8 -5.7 6.8 -27.5 l0 -19.1 4 0 4 0 0 28 0 28 -4 0 c-3.6 0 -4 -0.2 -4 -2.5 l0 -2.6 -3.1 2.3 c-2.7 2.1 -4.3 2.3 -14.7 2.5 -6.5 0.1 -13 -0.3 -14.7 -0.9z"/>
  <path d="M86 432 c0 -3.9 0.1 -4 3.5 -4 3.4 0 3.5 0.1 3.5 4 0 3.9 -0.1 4 -3.5 4 -3.4 0 -3.5 -0.1 -3.5 -4z"/>
  <path d="M100 432 c0 -3.9 0.1 -4 3.5 -4 3.4 0 3.5 0.1 3.5 4 0 3.9 -0.1 4 -3.5 4 -3.4 0 -3.5 -0.1 -3.5 -4z"/>
  <path d="M6 198.5 l0 -187.5 189 0 189 0 0 187.5 0 187.5 -189 0 -189 0 0 -187.5z m40 163 l0 -8.5 -11.5 0 -11.5 0 0 8.5 0 8.5 11.5 0 11.5 0 0 -8.5z m46 0 l0 -8.5 -12.5 0 -12.5 0 0 8.5 0 8.5 12.5 0 12.5 0 0 -8.5z m46 0 l0 -8.5 -12.5 0 -12.5 0 0 8.5 0 8.5 12.5 0 12.5 0 0 -8.5z m47 -81.5 l0 -90 10.5 0 10.5 0 0 90 0 90 12.5 0 12.5 0 0 -68.5 0 -68.5 10.5 0 10.5 0 0 68.5 0 68.6 12.8 -0.3 12.7 -0.3 0.3 -46.7 0.2 -46.8 10 0 10 0 0.2 46.8 0.3 46.7 12.5 0 12.5 0 0.3 -25.7 0.2 -25.8 10 0 10 0 0.2 25.8 0.3 25.7 11.3 0.3 11.2 0.3 0 -171.6 0 -171.5 -172 0 -172 0 0 34.5 0 34.5 68 0 68 0 0 8.5 0 8.5 -68 0 -68 0 0 8.5 0 8.5 68 0 68 0 0 8.5 0 8.5 -68 0 -68 0 0 9 0 9 68 0 68 0 0 8 0 8 -68 0 -68 0 0 9 0 9 68 0 68 0 0 8.5 0 8.5 -68 0 -68 0 0 8.5 0 8.5 68 0 68 0 0 67.8 c0 37.3 0.3 68.2 0.7 68.5 0.3 0.4 6.2 0.7 13 0.7 l12.3 0 0 -90z m-139 47 l0 -9 -4.7 0 c-2.7 0 -7.8 0.3 -11.5 0.7 l-6.8 0.6 0 8.3 0 8.4 11.5 0 11.5 0 0 -9z m46 0.6 l0 -8.3 -7.7 -0.7 c-4.2 -0.3 -9.8 -0.6 -12.5 -0.6 l-4.8 0 0 9 0 9 12.5 0 12.5 0 0 -8.4z m46 -0.1 l0 -8.5 -12.5 0 -12.5 0 0 8.5 0 8.5 12.5 0 12.5 0 0 -8.5z m-46 -34.5 l0 -9 -34.5 0 -34.5 0 0 9 0 9 34.5 0 34.5 0 0 -9z m46 0 l0 -9 -12.5 0 -12.5 0 0 9 0 9 12.5 0 12.5 0 0 -9z m0 -34 l0 -9 -57.5 0 -57.5 0 0 9 0 9 57.5 0 57.5 0 0 -9z"/>
  <path d="M274 166 c-25.2 -3.8 -43 -24.5 -43 -50 0 -22.2 14.3 -41.8 35.2 -48.1 5.6 -1.7 8.8 -2.1 17.6 -1.7 9.9 0.3 11.3 0.6 18.5 4 26.7 12.8 37.3 44.1 23.6 69.9 -9.8 18.3 -31.3 29 -51.9 25.9z"/>
 </g>
</svg>